<?xml version="1.0" encoding="utf-8" standalone="no"?>
<!DOCTYPE svg PUBLIC "-//W3C//DTD SVG 1.1//EN"
  "http://www.w3.org/Graphics/SVG/1.1/DTD/svg11.dtd">
<!-- Created with matplotlib (https://matplotlib.org/) -->
<svg height="576pt" version="1.1" viewBox="0 0 1080 576" width="1080pt" xmlns="http://www.w3.org/2000/svg" xmlns:xlink="http://www.w3.org/1999/xlink">
 <metadata>
  <rdf:RDF xmlns:cc="http://creativecommons.org/ns#" xmlns:dc="http://purl.org/dc/elements/1.1/" xmlns:rdf="http://www.w3.org/1999/02/22-rdf-syntax-ns#">
   <cc:Work>
    <dc:type rdf:resource="http://purl.org/dc/dcmitype/StillImage"/>
    <dc:date>2021-12-22T16:25:33.542438</dc:date>
    <dc:format>image/svg+xml</dc:format>
    <dc:creator>
     <cc:Agent>
      <dc:title>Matplotlib v3.3.4, https://matplotlib.org/</dc:title>
     </cc:Agent>
    </dc:creator>
   </cc:Work>
  </rdf:RDF>
 </metadata>
 <defs>
  <style type="text/css">*{stroke-linecap:butt;stroke-linejoin:round;}</style>
 </defs>
 <g id="figure_1">
  <g id="patch_1">
   <path d="M 0 576 
L 1080 576 
L 1080 0 
L 0 0 
z
" style="fill:#ffffff;"/>
  </g>
  <g id="axes_1">
   <g id="patch_2">
    <path d="M 52.70625 528.60375 
L 1067.04 528.60375 
L 1067.04 12.96 
L 52.70625 12.96 
z
" style="fill:#eaeaf2;"/>
   </g>
   <g id="matplotlib.axis_1">
    <g id="xtick_1">
     <g id="line2d_1">
      <path clip-path="url(#pcbf341cf4d)" d="M 98.81233 528.60375 
L 98.81233 12.96 
" style="fill:none;stroke:#ffffff;stroke-linecap:round;"/>
     </g>
     <g id="text_1">
      <!-- 0.0 -->
      <g style="fill:#262626;" transform="translate(91.16733 545.977344)scale(0.11 -0.11)">
       <defs>
        <path d="M 4.15625 35.296875 
Q 4.15625 48 6.765625 55.734375 
Q 9.375 63.484375 14.515625 67.671875 
Q 19.671875 71.875 27.484375 71.875 
Q 33.25 71.875 37.59375 69.546875 
Q 41.9375 67.234375 44.765625 62.859375 
Q 47.609375 58.5 49.21875 52.21875 
Q 50.828125 45.953125 50.828125 35.296875 
Q 50.828125 22.703125 48.234375 14.96875 
Q 45.65625 7.234375 40.5 3 
Q 35.359375 -1.21875 27.484375 -1.21875 
Q 17.140625 -1.21875 11.234375 6.203125 
Q 4.15625 15.140625 4.15625 35.296875 
z
M 13.1875 35.296875 
Q 13.1875 17.671875 17.3125 11.828125 
Q 21.4375 6 27.484375 6 
Q 33.546875 6 37.671875 11.859375 
Q 41.796875 17.71875 41.796875 35.296875 
Q 41.796875 52.984375 37.671875 58.78125 
Q 33.546875 64.59375 27.390625 64.59375 
Q 21.34375 64.59375 17.71875 59.46875 
Q 13.1875 52.9375 13.1875 35.296875 
z
" id="ArialMT-48"/>
        <path d="M 9.078125 0 
L 9.078125 10.015625 
L 19.09375 10.015625 
L 19.09375 0 
z
" id="ArialMT-46"/>
       </defs>
       <use xlink:href="#ArialMT-48"/>
       <use x="55.615234" xlink:href="#ArialMT-46"/>
       <use x="83.398438" xlink:href="#ArialMT-48"/>
      </g>
     </g>
    </g>
    <g id="xtick_2">
     <g id="line2d_2">
      <path clip-path="url(#pcbf341cf4d)" d="M 283.236648 528.60375 
L 283.236648 12.96 
" style="fill:none;stroke:#ffffff;stroke-linecap:round;"/>
     </g>
     <g id="text_2">
      <!-- 0.2 -->
      <g style="fill:#262626;" transform="translate(275.591648 545.977344)scale(0.11 -0.11)">
       <defs>
        <path d="M 50.34375 8.453125 
L 50.34375 0 
L 3.03125 0 
Q 2.9375 3.171875 4.046875 6.109375 
Q 5.859375 10.9375 9.828125 15.625 
Q 13.8125 20.3125 21.34375 26.46875 
Q 33.015625 36.03125 37.109375 41.625 
Q 41.21875 47.21875 41.21875 52.203125 
Q 41.21875 57.421875 37.46875 61 
Q 33.734375 64.59375 27.734375 64.59375 
Q 21.390625 64.59375 17.578125 60.78125 
Q 13.765625 56.984375 13.71875 50.25 
L 4.6875 51.171875 
Q 5.609375 61.28125 11.65625 66.578125 
Q 17.71875 71.875 27.9375 71.875 
Q 38.234375 71.875 44.234375 66.15625 
Q 50.25 60.453125 50.25 52 
Q 50.25 47.703125 48.484375 43.546875 
Q 46.734375 39.40625 42.65625 34.8125 
Q 38.578125 30.21875 29.109375 22.21875 
Q 21.1875 15.578125 18.9375 13.203125 
Q 16.703125 10.84375 15.234375 8.453125 
z
" id="ArialMT-50"/>
       </defs>
       <use xlink:href="#ArialMT-48"/>
       <use x="55.615234" xlink:href="#ArialMT-46"/>
       <use x="83.398438" xlink:href="#ArialMT-50"/>
      </g>
     </g>
    </g>
    <g id="xtick_3">
     <g id="line2d_3">
      <path clip-path="url(#pcbf341cf4d)" d="M 467.660966 528.60375 
L 467.660966 12.96 
" style="fill:none;stroke:#ffffff;stroke-linecap:round;"/>
     </g>
     <g id="text_3">
      <!-- 0.4 -->
      <g style="fill:#262626;" transform="translate(460.015966 545.977344)scale(0.11 -0.11)">
       <defs>
        <path d="M 32.328125 0 
L 32.328125 17.140625 
L 1.265625 17.140625 
L 1.265625 25.203125 
L 33.9375 71.578125 
L 41.109375 71.578125 
L 41.109375 25.203125 
L 50.78125 25.203125 
L 50.78125 17.140625 
L 41.109375 17.140625 
L 41.109375 0 
z
M 32.328125 25.203125 
L 32.328125 57.46875 
L 9.90625 25.203125 
z
" id="ArialMT-52"/>
       </defs>
       <use xlink:href="#ArialMT-48"/>
       <use x="55.615234" xlink:href="#ArialMT-46"/>
       <use x="83.398438" xlink:href="#ArialMT-52"/>
      </g>
     </g>
    </g>
    <g id="xtick_4">
     <g id="line2d_4">
      <path clip-path="url(#pcbf341cf4d)" d="M 652.085284 528.60375 
L 652.085284 12.96 
" style="fill:none;stroke:#ffffff;stroke-linecap:round;"/>
     </g>
     <g id="text_4">
      <!-- 0.6 -->
      <g style="fill:#262626;" transform="translate(644.440284 545.977344)scale(0.11 -0.11)">
       <defs>
        <path d="M 49.75 54.046875 
L 41.015625 53.375 
Q 39.84375 58.546875 37.703125 60.890625 
Q 34.125 64.65625 28.90625 64.65625 
Q 24.703125 64.65625 21.53125 62.3125 
Q 17.390625 59.28125 14.984375 53.46875 
Q 12.59375 47.65625 12.5 36.921875 
Q 15.671875 41.75 20.265625 44.09375 
Q 24.859375 46.4375 29.890625 46.4375 
Q 38.671875 46.4375 44.84375 39.96875 
Q 51.03125 33.5 51.03125 23.25 
Q 51.03125 16.5 48.125 10.71875 
Q 45.21875 4.9375 40.140625 1.859375 
Q 35.0625 -1.21875 28.609375 -1.21875 
Q 17.625 -1.21875 10.6875 6.859375 
Q 3.765625 14.9375 3.765625 33.5 
Q 3.765625 54.25 11.421875 63.671875 
Q 18.109375 71.875 29.4375 71.875 
Q 37.890625 71.875 43.28125 67.140625 
Q 48.6875 62.40625 49.75 54.046875 
z
M 13.875 23.1875 
Q 13.875 18.65625 15.796875 14.5 
Q 17.71875 10.359375 21.1875 8.171875 
Q 24.65625 6 28.46875 6 
Q 34.03125 6 38.03125 10.484375 
Q 42.046875 14.984375 42.046875 22.703125 
Q 42.046875 30.125 38.078125 34.390625 
Q 34.125 38.671875 28.125 38.671875 
Q 22.171875 38.671875 18.015625 34.390625 
Q 13.875 30.125 13.875 23.1875 
z
" id="ArialMT-54"/>
       </defs>
       <use xlink:href="#ArialMT-48"/>
       <use x="55.615234" xlink:href="#ArialMT-46"/>
       <use x="83.398438" xlink:href="#ArialMT-54"/>
      </g>
     </g>
    </g>
    <g id="xtick_5">
     <g id="line2d_5">
      <path clip-path="url(#pcbf341cf4d)" d="M 836.509602 528.60375 
L 836.509602 12.96 
" style="fill:none;stroke:#ffffff;stroke-linecap:round;"/>
     </g>
     <g id="text_5">
      <!-- 0.8 -->
      <g style="fill:#262626;" transform="translate(828.864602 545.977344)scale(0.11 -0.11)">
       <defs>
        <path d="M 17.671875 38.8125 
Q 12.203125 40.828125 9.5625 44.53125 
Q 6.9375 48.25 6.9375 53.421875 
Q 6.9375 61.234375 12.546875 66.546875 
Q 18.171875 71.875 27.484375 71.875 
Q 36.859375 71.875 42.578125 66.421875 
Q 48.296875 60.984375 48.296875 53.171875 
Q 48.296875 48.1875 45.671875 44.5 
Q 43.0625 40.828125 37.75 38.8125 
Q 44.34375 36.671875 47.78125 31.875 
Q 51.21875 27.09375 51.21875 20.453125 
Q 51.21875 11.28125 44.71875 5.03125 
Q 38.234375 -1.21875 27.640625 -1.21875 
Q 17.046875 -1.21875 10.546875 5.046875 
Q 4.046875 11.328125 4.046875 20.703125 
Q 4.046875 27.6875 7.59375 32.390625 
Q 11.140625 37.109375 17.671875 38.8125 
z
M 15.921875 53.71875 
Q 15.921875 48.640625 19.1875 45.40625 
Q 22.46875 42.1875 27.6875 42.1875 
Q 32.765625 42.1875 36.015625 45.375 
Q 39.265625 48.578125 39.265625 53.21875 
Q 39.265625 58.0625 35.90625 61.359375 
Q 32.5625 64.65625 27.59375 64.65625 
Q 22.5625 64.65625 19.234375 61.421875 
Q 15.921875 58.203125 15.921875 53.71875 
z
M 13.09375 20.65625 
Q 13.09375 16.890625 14.875 13.375 
Q 16.65625 9.859375 20.171875 7.921875 
Q 23.6875 6 27.734375 6 
Q 34.03125 6 38.125 10.046875 
Q 42.234375 14.109375 42.234375 20.359375 
Q 42.234375 26.703125 38.015625 30.859375 
Q 33.796875 35.015625 27.4375 35.015625 
Q 21.234375 35.015625 17.15625 30.90625 
Q 13.09375 26.8125 13.09375 20.65625 
z
" id="ArialMT-56"/>
       </defs>
       <use xlink:href="#ArialMT-48"/>
       <use x="55.615234" xlink:href="#ArialMT-46"/>
       <use x="83.398438" xlink:href="#ArialMT-56"/>
      </g>
     </g>
    </g>
    <g id="xtick_6">
     <g id="line2d_6">
      <path clip-path="url(#pcbf341cf4d)" d="M 1020.93392 528.60375 
L 1020.93392 12.96 
" style="fill:none;stroke:#ffffff;stroke-linecap:round;"/>
     </g>
     <g id="text_6">
      <!-- 1.0 -->
      <g style="fill:#262626;" transform="translate(1013.28892 545.977344)scale(0.11 -0.11)">
       <defs>
        <path d="M 37.25 0 
L 28.46875 0 
L 28.46875 56 
Q 25.296875 52.984375 20.140625 49.953125 
Q 14.984375 46.921875 10.890625 45.40625 
L 10.890625 53.90625 
Q 18.265625 57.375 23.78125 62.296875 
Q 29.296875 67.234375 31.59375 71.875 
L 37.25 71.875 
z
" id="ArialMT-49"/>
       </defs>
       <use xlink:href="#ArialMT-49"/>
       <use x="55.615234" xlink:href="#ArialMT-46"/>
       <use x="83.398438" xlink:href="#ArialMT-48"/>
      </g>
     </g>
    </g>
    <g id="text_7">
     <!-- False Positive Rate (Positive label: 1) -->
     <g style="fill:#262626;" transform="translate(460.502812 560.899219)scale(0.12 -0.12)">
      <defs>
       <path d="M 8.203125 0 
L 8.203125 71.578125 
L 56.5 71.578125 
L 56.5 63.140625 
L 17.671875 63.140625 
L 17.671875 40.96875 
L 51.265625 40.96875 
L 51.265625 32.515625 
L 17.671875 32.515625 
L 17.671875 0 
z
" id="ArialMT-70"/>
       <path d="M 40.4375 6.390625 
Q 35.546875 2.25 31.03125 0.53125 
Q 26.515625 -1.171875 21.34375 -1.171875 
Q 12.796875 -1.171875 8.203125 3 
Q 3.609375 7.171875 3.609375 13.671875 
Q 3.609375 17.484375 5.34375 20.625 
Q 7.078125 23.78125 9.890625 25.6875 
Q 12.703125 27.59375 16.21875 28.5625 
Q 18.796875 29.25 24.03125 29.890625 
Q 34.671875 31.15625 39.703125 32.90625 
Q 39.75 34.71875 39.75 35.203125 
Q 39.75 40.578125 37.25 42.78125 
Q 33.890625 45.75 27.25 45.75 
Q 21.046875 45.75 18.09375 43.578125 
Q 15.140625 41.40625 13.71875 35.890625 
L 5.125 37.0625 
Q 6.296875 42.578125 8.984375 45.96875 
Q 11.671875 49.359375 16.75 51.1875 
Q 21.828125 53.03125 28.515625 53.03125 
Q 35.15625 53.03125 39.296875 51.46875 
Q 43.453125 49.90625 45.40625 47.53125 
Q 47.359375 45.171875 48.140625 41.546875 
Q 48.578125 39.3125 48.578125 33.453125 
L 48.578125 21.734375 
Q 48.578125 9.46875 49.140625 6.21875 
Q 49.703125 2.984375 51.375 0 
L 42.1875 0 
Q 40.828125 2.734375 40.4375 6.390625 
z
M 39.703125 26.03125 
Q 34.90625 24.078125 25.34375 22.703125 
Q 19.921875 21.921875 17.671875 20.9375 
Q 15.4375 19.96875 14.203125 18.09375 
Q 12.984375 16.21875 12.984375 13.921875 
Q 12.984375 10.40625 15.640625 8.0625 
Q 18.3125 5.71875 23.4375 5.71875 
Q 28.515625 5.71875 32.46875 7.9375 
Q 36.421875 10.15625 38.28125 14.015625 
Q 39.703125 17 39.703125 22.796875 
z
" id="ArialMT-97"/>
       <path d="M 6.390625 0 
L 6.390625 71.578125 
L 15.1875 71.578125 
L 15.1875 0 
z
" id="ArialMT-108"/>
       <path d="M 3.078125 15.484375 
L 11.765625 16.84375 
Q 12.5 11.625 15.84375 8.84375 
Q 19.1875 6.0625 25.203125 6.0625 
Q 31.25 6.0625 34.171875 8.515625 
Q 37.109375 10.984375 37.109375 14.3125 
Q 37.109375 17.28125 34.515625 19 
Q 32.71875 20.171875 25.53125 21.96875 
Q 15.875 24.421875 12.140625 26.203125 
Q 8.40625 27.984375 6.46875 31.125 
Q 4.546875 34.28125 4.546875 38.09375 
Q 4.546875 41.546875 6.125 44.5 
Q 7.71875 47.46875 10.453125 49.421875 
Q 12.5 50.921875 16.03125 51.96875 
Q 19.578125 53.03125 23.640625 53.03125 
Q 29.734375 53.03125 34.34375 51.265625 
Q 38.96875 49.515625 41.15625 46.5 
Q 43.359375 43.5 44.1875 38.484375 
L 35.59375 37.3125 
Q 35.015625 41.3125 32.203125 43.546875 
Q 29.390625 45.796875 24.265625 45.796875 
Q 18.21875 45.796875 15.625 43.796875 
Q 13.03125 41.796875 13.03125 39.109375 
Q 13.03125 37.40625 14.109375 36.03125 
Q 15.1875 34.625 17.484375 33.6875 
Q 18.796875 33.203125 25.25 31.453125 
Q 34.578125 28.953125 38.25 27.359375 
Q 41.9375 25.78125 44.03125 22.75 
Q 46.140625 19.734375 46.140625 15.234375 
Q 46.140625 10.84375 43.578125 6.953125 
Q 41.015625 3.078125 36.171875 0.953125 
Q 31.34375 -1.171875 25.25 -1.171875 
Q 15.140625 -1.171875 9.84375 3.03125 
Q 4.546875 7.234375 3.078125 15.484375 
z
" id="ArialMT-115"/>
       <path d="M 42.09375 16.703125 
L 51.171875 15.578125 
Q 49.03125 7.625 43.21875 3.21875 
Q 37.40625 -1.171875 28.375 -1.171875 
Q 17 -1.171875 10.328125 5.828125 
Q 3.65625 12.84375 3.65625 25.484375 
Q 3.65625 38.578125 10.390625 45.796875 
Q 17.140625 53.03125 27.875 53.03125 
Q 38.28125 53.03125 44.875 45.953125 
Q 51.46875 38.875 51.46875 26.03125 
Q 51.46875 25.25 51.421875 23.6875 
L 12.75 23.6875 
Q 13.234375 15.140625 17.578125 10.59375 
Q 21.921875 6.0625 28.421875 6.0625 
Q 33.25 6.0625 36.671875 8.59375 
Q 40.09375 11.140625 42.09375 16.703125 
z
M 13.234375 30.90625 
L 42.1875 30.90625 
Q 41.609375 37.453125 38.875 40.71875 
Q 34.671875 45.796875 27.984375 45.796875 
Q 21.921875 45.796875 17.796875 41.75 
Q 13.671875 37.703125 13.234375 30.90625 
z
" id="ArialMT-101"/>
       <path id="ArialMT-32"/>
       <path d="M 7.71875 0 
L 7.71875 71.578125 
L 34.71875 71.578125 
Q 41.84375 71.578125 45.609375 70.90625 
Q 50.875 70.015625 54.4375 67.546875 
Q 58.015625 65.09375 60.1875 60.640625 
Q 62.359375 56.203125 62.359375 50.875 
Q 62.359375 41.75 56.546875 35.421875 
Q 50.734375 29.109375 35.546875 29.109375 
L 17.1875 29.109375 
L 17.1875 0 
z
M 17.1875 37.546875 
L 35.6875 37.546875 
Q 44.875 37.546875 48.734375 40.96875 
Q 52.59375 44.390625 52.59375 50.59375 
Q 52.59375 55.078125 50.3125 58.265625 
Q 48.046875 61.46875 44.34375 62.5 
Q 41.9375 63.140625 35.5 63.140625 
L 17.1875 63.140625 
z
" id="ArialMT-80"/>
       <path d="M 3.328125 25.921875 
Q 3.328125 40.328125 11.328125 47.265625 
Q 18.015625 53.03125 27.640625 53.03125 
Q 38.328125 53.03125 45.109375 46.015625 
Q 51.90625 39.015625 51.90625 26.65625 
Q 51.90625 16.65625 48.90625 10.90625 
Q 45.90625 5.171875 40.15625 2 
Q 34.421875 -1.171875 27.640625 -1.171875 
Q 16.75 -1.171875 10.03125 5.8125 
Q 3.328125 12.796875 3.328125 25.921875 
z
M 12.359375 25.921875 
Q 12.359375 15.96875 16.703125 11.015625 
Q 21.046875 6.0625 27.640625 6.0625 
Q 34.1875 6.0625 38.53125 11.03125 
Q 42.875 16.015625 42.875 26.21875 
Q 42.875 35.84375 38.5 40.796875 
Q 34.125 45.75 27.640625 45.75 
Q 21.046875 45.75 16.703125 40.8125 
Q 12.359375 35.890625 12.359375 25.921875 
z
" id="ArialMT-111"/>
       <path d="M 6.640625 61.46875 
L 6.640625 71.578125 
L 15.4375 71.578125 
L 15.4375 61.46875 
z
M 6.640625 0 
L 6.640625 51.859375 
L 15.4375 51.859375 
L 15.4375 0 
z
" id="ArialMT-105"/>
       <path d="M 25.78125 7.859375 
L 27.046875 0.09375 
Q 23.34375 -0.6875 20.40625 -0.6875 
Q 15.625 -0.6875 12.984375 0.828125 
Q 10.359375 2.34375 9.28125 4.8125 
Q 8.203125 7.28125 8.203125 15.1875 
L 8.203125 45.015625 
L 1.765625 45.015625 
L 1.765625 51.859375 
L 8.203125 51.859375 
L 8.203125 64.703125 
L 16.9375 69.96875 
L 16.9375 51.859375 
L 25.78125 51.859375 
L 25.78125 45.015625 
L 16.9375 45.015625 
L 16.9375 14.703125 
Q 16.9375 10.9375 17.40625 9.859375 
Q 17.875 8.796875 18.921875 8.15625 
Q 19.96875 7.515625 21.921875 7.515625 
Q 23.390625 7.515625 25.78125 7.859375 
z
" id="ArialMT-116"/>
       <path d="M 21 0 
L 1.265625 51.859375 
L 10.546875 51.859375 
L 21.6875 20.796875 
Q 23.484375 15.765625 25 10.359375 
Q 26.171875 14.453125 28.265625 20.21875 
L 39.796875 51.859375 
L 48.828125 51.859375 
L 29.203125 0 
z
" id="ArialMT-118"/>
       <path d="M 7.859375 0 
L 7.859375 71.578125 
L 39.59375 71.578125 
Q 49.171875 71.578125 54.140625 69.640625 
Q 59.125 67.71875 62.109375 62.828125 
Q 65.09375 57.953125 65.09375 52.046875 
Q 65.09375 44.4375 60.15625 39.203125 
Q 55.21875 33.984375 44.921875 32.5625 
Q 48.6875 30.765625 50.640625 29 
Q 54.78125 25.203125 58.5 19.484375 
L 70.953125 0 
L 59.03125 0 
L 49.5625 14.890625 
Q 45.40625 21.34375 42.71875 24.75 
Q 40.046875 28.171875 37.921875 29.53125 
Q 35.796875 30.90625 33.59375 31.453125 
Q 31.984375 31.78125 28.328125 31.78125 
L 17.328125 31.78125 
L 17.328125 0 
z
M 17.328125 39.984375 
L 37.703125 39.984375 
Q 44.1875 39.984375 47.84375 41.328125 
Q 51.515625 42.671875 53.421875 45.625 
Q 55.328125 48.578125 55.328125 52.046875 
Q 55.328125 57.125 51.640625 60.390625 
Q 47.953125 63.671875 39.984375 63.671875 
L 17.328125 63.671875 
z
" id="ArialMT-82"/>
       <path d="M 23.390625 -21.046875 
Q 16.109375 -11.859375 11.078125 0.4375 
Q 6.0625 12.75 6.0625 25.921875 
Q 6.0625 37.546875 9.8125 48.1875 
Q 14.203125 60.546875 23.390625 72.796875 
L 29.6875 72.796875 
Q 23.78125 62.640625 21.875 58.296875 
Q 18.890625 51.5625 17.1875 44.234375 
Q 15.09375 35.109375 15.09375 25.875 
Q 15.09375 2.390625 29.6875 -21.046875 
z
" id="ArialMT-40"/>
       <path d="M 14.703125 0 
L 6.546875 0 
L 6.546875 71.578125 
L 15.328125 71.578125 
L 15.328125 46.046875 
Q 20.90625 53.03125 29.546875 53.03125 
Q 34.328125 53.03125 38.59375 51.09375 
Q 42.875 49.171875 45.625 45.671875 
Q 48.390625 42.1875 49.953125 37.25 
Q 51.515625 32.328125 51.515625 26.703125 
Q 51.515625 13.375 44.921875 6.09375 
Q 38.328125 -1.171875 29.109375 -1.171875 
Q 19.921875 -1.171875 14.703125 6.5 
z
M 14.59375 26.3125 
Q 14.59375 17 17.140625 12.84375 
Q 21.296875 6.0625 28.375 6.0625 
Q 34.125 6.0625 38.328125 11.0625 
Q 42.53125 16.0625 42.53125 25.984375 
Q 42.53125 36.140625 38.5 40.96875 
Q 34.46875 45.796875 28.765625 45.796875 
Q 23 45.796875 18.796875 40.796875 
Q 14.59375 35.796875 14.59375 26.3125 
z
" id="ArialMT-98"/>
       <path d="M 9.03125 41.84375 
L 9.03125 51.859375 
L 19.046875 51.859375 
L 19.046875 41.84375 
z
M 9.03125 0 
L 9.03125 10.015625 
L 19.046875 10.015625 
L 19.046875 0 
z
" id="ArialMT-58"/>
       <path d="M 12.359375 -21.046875 
L 6.0625 -21.046875 
Q 20.65625 2.390625 20.65625 25.875 
Q 20.65625 35.0625 18.5625 44.09375 
Q 16.890625 51.421875 13.921875 58.15625 
Q 12.015625 62.546875 6.0625 72.796875 
L 12.359375 72.796875 
Q 21.53125 60.546875 25.921875 48.1875 
Q 29.6875 37.546875 29.6875 25.921875 
Q 29.6875 12.75 24.625 0.4375 
Q 19.578125 -11.859375 12.359375 -21.046875 
z
" id="ArialMT-41"/>
      </defs>
      <use xlink:href="#ArialMT-70"/>
      <use x="61.083984" xlink:href="#ArialMT-97"/>
      <use x="116.699219" xlink:href="#ArialMT-108"/>
      <use x="138.916016" xlink:href="#ArialMT-115"/>
      <use x="188.916016" xlink:href="#ArialMT-101"/>
      <use x="244.53125" xlink:href="#ArialMT-32"/>
      <use x="272.314453" xlink:href="#ArialMT-80"/>
      <use x="339.013672" xlink:href="#ArialMT-111"/>
      <use x="394.628906" xlink:href="#ArialMT-115"/>
      <use x="444.628906" xlink:href="#ArialMT-105"/>
      <use x="466.845703" xlink:href="#ArialMT-116"/>
      <use x="494.628906" xlink:href="#ArialMT-105"/>
      <use x="516.845703" xlink:href="#ArialMT-118"/>
      <use x="566.845703" xlink:href="#ArialMT-101"/>
      <use x="622.460938" xlink:href="#ArialMT-32"/>
      <use x="650.244141" xlink:href="#ArialMT-82"/>
      <use x="722.460938" xlink:href="#ArialMT-97"/>
      <use x="778.076172" xlink:href="#ArialMT-116"/>
      <use x="805.859375" xlink:href="#ArialMT-101"/>
      <use x="861.474609" xlink:href="#ArialMT-32"/>
      <use x="889.257812" xlink:href="#ArialMT-40"/>
      <use x="922.558594" xlink:href="#ArialMT-80"/>
      <use x="989.257812" xlink:href="#ArialMT-111"/>
      <use x="1044.873047" xlink:href="#ArialMT-115"/>
      <use x="1094.873047" xlink:href="#ArialMT-105"/>
      <use x="1117.089844" xlink:href="#ArialMT-116"/>
      <use x="1144.873047" xlink:href="#ArialMT-105"/>
      <use x="1167.089844" xlink:href="#ArialMT-118"/>
      <use x="1217.089844" xlink:href="#ArialMT-101"/>
      <use x="1272.705078" xlink:href="#ArialMT-32"/>
      <use x="1300.488281" xlink:href="#ArialMT-108"/>
      <use x="1322.705078" xlink:href="#ArialMT-97"/>
      <use x="1378.320312" xlink:href="#ArialMT-98"/>
      <use x="1433.935547" xlink:href="#ArialMT-101"/>
      <use x="1489.550781" xlink:href="#ArialMT-108"/>
      <use x="1511.767578" xlink:href="#ArialMT-58"/>
      <use x="1539.550781" xlink:href="#ArialMT-32"/>
      <use x="1567.333984" xlink:href="#ArialMT-49"/>
      <use x="1622.949219" xlink:href="#ArialMT-41"/>
     </g>
    </g>
   </g>
   <g id="matplotlib.axis_2">
    <g id="ytick_1">
     <g id="line2d_7">
      <path clip-path="url(#pcbf341cf4d)" d="M 52.70625 505.165398 
L 1067.04 505.165398 
" style="fill:none;stroke:#ffffff;stroke-linecap:round;"/>
     </g>
     <g id="text_8">
      <!-- 0.0 -->
      <g style="fill:#262626;" transform="translate(27.91625 509.102195)scale(0.11 -0.11)">
       <use xlink:href="#ArialMT-48"/>
       <use x="55.615234" xlink:href="#ArialMT-46"/>
       <use x="83.398438" xlink:href="#ArialMT-48"/>
      </g>
     </g>
    </g>
    <g id="ytick_2">
     <g id="line2d_8">
      <path clip-path="url(#pcbf341cf4d)" d="M 52.70625 411.411989 
L 1067.04 411.411989 
" style="fill:none;stroke:#ffffff;stroke-linecap:round;"/>
     </g>
     <g id="text_9">
      <!-- 0.2 -->
      <g style="fill:#262626;" transform="translate(27.91625 415.348786)scale(0.11 -0.11)">
       <use xlink:href="#ArialMT-48"/>
       <use x="55.615234" xlink:href="#ArialMT-46"/>
       <use x="83.398438" xlink:href="#ArialMT-50"/>
      </g>
     </g>
    </g>
    <g id="ytick_3">
     <g id="line2d_9">
      <path clip-path="url(#pcbf341cf4d)" d="M 52.70625 317.65858 
L 1067.04 317.65858 
" style="fill:none;stroke:#ffffff;stroke-linecap:round;"/>
     </g>
     <g id="text_10">
      <!-- 0.4 -->
      <g style="fill:#262626;" transform="translate(27.91625 321.595376)scale(0.11 -0.11)">
       <use xlink:href="#ArialMT-48"/>
       <use x="55.615234" xlink:href="#ArialMT-46"/>
       <use x="83.398438" xlink:href="#ArialMT-52"/>
      </g>
     </g>
    </g>
    <g id="ytick_4">
     <g id="line2d_10">
      <path clip-path="url(#pcbf341cf4d)" d="M 52.70625 223.90517 
L 1067.04 223.90517 
" style="fill:none;stroke:#ffffff;stroke-linecap:round;"/>
     </g>
     <g id="text_11">
      <!-- 0.6 -->
      <g style="fill:#262626;" transform="translate(27.91625 227.841967)scale(0.11 -0.11)">
       <use xlink:href="#ArialMT-48"/>
       <use x="55.615234" xlink:href="#ArialMT-46"/>
       <use x="83.398438" xlink:href="#ArialMT-54"/>
      </g>
     </g>
    </g>
    <g id="ytick_5">
     <g id="line2d_11">
      <path clip-path="url(#pcbf341cf4d)" d="M 52.70625 130.151761 
L 1067.04 130.151761 
" style="fill:none;stroke:#ffffff;stroke-linecap:round;"/>
     </g>
     <g id="text_12">
      <!-- 0.8 -->
      <g style="fill:#262626;" transform="translate(27.91625 134.088558)scale(0.11 -0.11)">
       <use xlink:href="#ArialMT-48"/>
       <use x="55.615234" xlink:href="#ArialMT-46"/>
       <use x="83.398438" xlink:href="#ArialMT-56"/>
      </g>
     </g>
    </g>
    <g id="ytick_6">
     <g id="line2d_12">
      <path clip-path="url(#pcbf341cf4d)" d="M 52.70625 36.398352 
L 1067.04 36.398352 
" style="fill:none;stroke:#ffffff;stroke-linecap:round;"/>
     </g>
     <g id="text_13">
      <!-- 1.0 -->
      <g style="fill:#262626;" transform="translate(27.91625 40.335149)scale(0.11 -0.11)">
       <use xlink:href="#ArialMT-49"/>
       <use x="55.615234" xlink:href="#ArialMT-46"/>
       <use x="83.398438" xlink:href="#ArialMT-48"/>
      </g>
     </g>
    </g>
    <g id="text_14">
     <!-- True Positive Rate (Positive label: 1) -->
     <g style="fill:#262626;" transform="translate(21.390625 367.591875)rotate(-90)scale(0.12 -0.12)">
      <defs>
       <path d="M 25.921875 0 
L 25.921875 63.140625 
L 2.34375 63.140625 
L 2.34375 71.578125 
L 59.078125 71.578125 
L 59.078125 63.140625 
L 35.40625 63.140625 
L 35.40625 0 
z
" id="ArialMT-84"/>
       <path d="M 6.5 0 
L 6.5 51.859375 
L 14.40625 51.859375 
L 14.40625 44 
Q 17.4375 49.515625 20 51.265625 
Q 22.5625 53.03125 25.640625 53.03125 
Q 30.078125 53.03125 34.671875 50.203125 
L 31.640625 42.046875 
Q 28.421875 43.953125 25.203125 43.953125 
Q 22.3125 43.953125 20.015625 42.21875 
Q 17.71875 40.484375 16.75 37.40625 
Q 15.28125 32.71875 15.28125 27.15625 
L 15.28125 0 
z
" id="ArialMT-114"/>
       <path d="M 40.578125 0 
L 40.578125 7.625 
Q 34.515625 -1.171875 24.125 -1.171875 
Q 19.53125 -1.171875 15.546875 0.578125 
Q 11.578125 2.34375 9.640625 5 
Q 7.71875 7.671875 6.9375 11.53125 
Q 6.390625 14.109375 6.390625 19.734375 
L 6.390625 51.859375 
L 15.1875 51.859375 
L 15.1875 23.09375 
Q 15.1875 16.21875 15.71875 13.8125 
Q 16.546875 10.359375 19.234375 8.375 
Q 21.921875 6.390625 25.875 6.390625 
Q 29.828125 6.390625 33.296875 8.421875 
Q 36.765625 10.453125 38.203125 13.9375 
Q 39.65625 17.4375 39.65625 24.078125 
L 39.65625 51.859375 
L 48.4375 51.859375 
L 48.4375 0 
z
" id="ArialMT-117"/>
      </defs>
      <use xlink:href="#ArialMT-84"/>
      <use x="57.333984" xlink:href="#ArialMT-114"/>
      <use x="90.634766" xlink:href="#ArialMT-117"/>
      <use x="146.25" xlink:href="#ArialMT-101"/>
      <use x="201.865234" xlink:href="#ArialMT-32"/>
      <use x="229.648438" xlink:href="#ArialMT-80"/>
      <use x="296.347656" xlink:href="#ArialMT-111"/>
      <use x="351.962891" xlink:href="#ArialMT-115"/>
      <use x="401.962891" xlink:href="#ArialMT-105"/>
      <use x="424.179688" xlink:href="#ArialMT-116"/>
      <use x="451.962891" xlink:href="#ArialMT-105"/>
      <use x="474.179688" xlink:href="#ArialMT-118"/>
      <use x="524.179688" xlink:href="#ArialMT-101"/>
      <use x="579.794922" xlink:href="#ArialMT-32"/>
      <use x="607.578125" xlink:href="#ArialMT-82"/>
      <use x="679.794922" xlink:href="#ArialMT-97"/>
      <use x="735.410156" xlink:href="#ArialMT-116"/>
      <use x="763.193359" xlink:href="#ArialMT-101"/>
      <use x="818.808594" xlink:href="#ArialMT-32"/>
      <use x="846.591797" xlink:href="#ArialMT-40"/>
      <use x="879.892578" xlink:href="#ArialMT-80"/>
      <use x="946.591797" xlink:href="#ArialMT-111"/>
      <use x="1002.207031" xlink:href="#ArialMT-115"/>
      <use x="1052.207031" xlink:href="#ArialMT-105"/>
      <use x="1074.423828" xlink:href="#ArialMT-116"/>
      <use x="1102.207031" xlink:href="#ArialMT-105"/>
      <use x="1124.423828" xlink:href="#ArialMT-118"/>
      <use x="1174.423828" xlink:href="#ArialMT-101"/>
      <use x="1230.039062" xlink:href="#ArialMT-32"/>
      <use x="1257.822266" xlink:href="#ArialMT-108"/>
      <use x="1280.039062" xlink:href="#ArialMT-97"/>
      <use x="1335.654297" xlink:href="#ArialMT-98"/>
      <use x="1391.269531" xlink:href="#ArialMT-101"/>
      <use x="1446.884766" xlink:href="#ArialMT-108"/>
      <use x="1469.101562" xlink:href="#ArialMT-58"/>
      <use x="1496.884766" xlink:href="#ArialMT-32"/>
      <use x="1524.667969" xlink:href="#ArialMT-49"/>
      <use x="1580.283203" xlink:href="#ArialMT-41"/>
     </g>
    </g>
   </g>
   <g id="line2d_13">
    <path clip-path="url(#pcbf341cf4d)" d="M 98.81233 505.165398 
L 98.81233 499.494829 
L 99.174941 493.82426 
L 99.174941 353.950222 
L 99.537553 351.114937 
L 99.900165 340.718894 
L 99.900165 319.926807 
L 100.262776 318.981712 
L 100.262776 315.201333 
L 100.625388 311.420954 
L 100.625388 275.507349 
L 100.988 273.61716 
L 100.988 243.374124 
L 101.350612 241.483935 
L 101.350612 218.801658 
L 101.713223 214.076184 
L 101.713223 209.35071 
L 102.075835 206.515425 
L 102.438447 204.625236 
L 102.438447 198.009572 
L 102.801058 195.174287 
L 102.801058 194.229192 
L 103.16367 192.339002 
L 103.16367 184.778244 
L 103.526282 181.942959 
L 104.251505 179.107675 
L 104.251505 174.3822 
L 104.614117 170.601821 
L 105.33934 168.711631 
L 105.701952 163.986157 
L 105.701952 160.205778 
L 106.064564 157.370493 
L 106.427176 155.480303 
L 107.152399 153.590114 
L 107.152399 140.358786 
L 107.877622 137.523501 
L 107.877622 131.852932 
L 108.965458 130.907837 
L 108.965458 128.072553 
L 109.328069 124.292173 
L 109.328069 122.401984 
L 110.053293 119.566699 
L 110.053293 116.731414 
L 111.141128 111.060845 
L 111.50374 107.280466 
L 112.954186 105.390276 
L 113.316798 104.445181 
L 114.042022 103.500087 
L 114.404633 98.774612 
L 114.767245 95.939328 
L 115.129857 95.939328 
L 115.129857 94.994233 
L 115.85508 94.049138 
L 116.217692 93.104043 
L 117.668139 91.213854 
L 118.755974 90.268759 
L 119.118586 88.378569 
L 119.481197 88.378569 
L 119.843809 87.433474 
L 119.843809 86.488379 
L 120.206421 84.59819 
L 122.019479 82.708 
L 122.382091 81.762905 
L 124.19515 81.762905 
L 124.557761 79.872715 
L 125.282985 78.927621 
L 126.37082 77.037431 
L 126.733432 76.092336 
L 127.096043 73.257051 
L 127.096043 71.366862 
L 128.54649 70.421767 
L 129.271714 67.586482 
L 130.359549 65.696293 
L 131.809996 64.751198 
L 135.798724 64.751198 
L 137.249171 63.806103 
L 138.337006 61.915913 
L 139.06223 61.915913 
L 139.787453 60.025724 
L 140.512677 59.080629 
L 141.2379 57.190439 
L 145.226629 57.190439 
L 147.764911 55.300249 
L 148.490134 54.355154 
L 151.391028 52.464965 
L 155.017145 52.464965 
L 157.918039 51.51987 
L 161.906768 51.51987 
L 164.44505 50.574775 
L 165.895497 48.684585 
L 167.345944 45.849301 
L 169.521614 45.849301 
L 172.422508 43.959111 
L 180.762577 43.959111 
L 183.300859 43.014016 
L 192.00354 43.014016 
L 195.992269 42.068921 
L 201.068833 42.068921 
L 204.69495 41.123827 
L 226.451653 41.123827 
L 232.253441 40.178732 
L 237.330005 39.233637 
L 243.131792 38.288542 
L 252.922308 38.288542 
L 260.899766 37.343447 
L 276.854682 37.343447 
L 287.733033 36.398352 
L 1020.93392 36.398352 
L 1020.93392 36.398352 
" style="fill:none;stroke:#4c72b0;stroke-linecap:round;stroke-opacity:0.8;stroke-width:1.5;"/>
   </g>
   <g id="line2d_14">
    <path clip-path="url(#pcbf341cf4d)" d="M 98.81233 505.165398 
L 98.81233 500.439923 
L 99.174941 500.439923 
L 99.174941 496.659544 
L 99.537553 496.659544 
L 99.537553 490.04388 
L 99.900165 490.04388 
L 99.900165 488.15369 
L 100.262776 488.15369 
L 100.262776 480.592932 
L 100.625388 480.592932 
L 100.625388 476.812552 
L 100.988 476.812552 
L 100.988 475.867457 
L 101.350612 475.867457 
L 101.350612 463.581224 
L 101.713223 463.581224 
L 101.713223 460.74594 
L 102.075835 460.74594 
L 102.075835 457.910655 
L 102.438447 457.910655 
L 102.438447 456.96556 
L 102.801058 456.96556 
L 102.801058 454.130276 
L 103.16367 454.130276 
L 103.16367 439.953853 
L 103.526282 439.953853 
L 103.526282 436.173474 
L 103.888894 436.173474 
L 103.888894 433.338189 
L 104.251505 433.338189 
L 104.251505 432.393094 
L 104.976729 432.393094 
L 104.976729 424.832336 
L 105.33934 424.832336 
L 105.33934 420.106861 
L 105.701952 420.106861 
L 105.701952 416.326482 
L 106.064564 416.326482 
L 106.064564 414.436292 
L 106.789787 414.436292 
L 106.789787 412.546102 
L 107.152399 412.546102 
L 107.152399 411.601008 
L 107.515011 411.601008 
L 107.515011 410.655913 
L 107.877622 410.655913 
L 107.877622 409.710818 
L 108.602846 409.710818 
L 108.602846 408.765723 
L 108.965458 408.765723 
L 108.965458 404.985344 
L 109.328069 404.985344 
L 109.328069 404.040249 
L 109.690681 404.040249 
L 109.690681 399.314775 
L 110.053293 399.314775 
L 110.053293 398.36968 
L 110.415904 398.36968 
L 110.415904 391.754016 
L 110.778516 391.754016 
L 110.778516 389.863826 
L 111.50374 389.863826 
L 111.50374 387.973636 
L 111.866351 387.973636 
L 111.866351 387.028542 
L 112.228963 387.028542 
L 112.228963 373.797214 
L 112.591575 373.797214 
L 112.591575 372.852119 
L 113.316798 372.852119 
L 113.316798 369.071739 
L 113.67941 369.071739 
L 113.67941 365.29136 
L 114.042022 365.29136 
L 114.042022 363.40117 
L 114.404633 363.40117 
L 114.404633 361.510981 
L 114.767245 361.510981 
L 114.767245 358.675696 
L 115.492468 358.675696 
L 115.492468 355.840411 
L 116.580304 355.840411 
L 116.580304 354.895317 
L 116.942915 354.895317 
L 116.942915 353.950222 
L 118.03075 353.950222 
L 118.03075 348.279653 
L 118.393362 348.279653 
L 118.393362 347.334558 
L 118.755974 347.334558 
L 118.755974 345.444368 
L 119.481197 345.444368 
L 119.481197 343.554178 
L 119.843809 343.554178 
L 119.843809 341.663989 
L 120.569032 341.663989 
L 120.569032 340.718894 
L 121.294256 340.718894 
L 121.294256 335.048325 
L 122.382091 335.048325 
L 122.382091 332.21304 
L 123.107314 332.21304 
L 123.107314 331.267945 
L 123.469926 331.267945 
L 123.469926 329.377756 
L 124.19515 329.377756 
L 124.19515 327.487566 
L 124.557761 327.487566 
L 124.557761 326.542471 
L 125.282985 326.542471 
L 125.282985 325.597376 
L 125.645596 325.597376 
L 125.645596 323.707187 
L 126.37082 323.707187 
L 126.37082 322.762092 
L 126.733432 322.762092 
L 126.733432 320.871902 
L 127.096043 320.871902 
L 127.096043 318.981712 
L 127.458655 318.981712 
L 127.458655 317.091523 
L 127.821267 317.091523 
L 127.821267 313.311143 
L 128.183878 313.311143 
L 128.183878 312.366048 
L 128.54649 312.366048 
L 128.54649 309.530764 
L 128.909102 309.530764 
L 128.909102 303.860195 
L 129.271714 303.860195 
L 129.271714 301.02491 
L 130.359549 301.02491 
L 130.359549 300.079815 
L 130.72216 300.079815 
L 130.72216 299.13472 
L 131.809996 299.13472 
L 131.809996 295.354341 
L 132.172607 295.354341 
L 132.172607 292.519057 
L 132.535219 292.519057 
L 132.535219 291.573962 
L 133.623054 291.573962 
L 133.623054 287.793582 
L 133.985666 287.793582 
L 133.985666 284.958298 
L 135.436113 284.958298 
L 135.436113 284.013203 
L 136.523948 284.013203 
L 136.523948 283.068108 
L 138.337006 283.068108 
L 138.337006 281.177918 
L 138.699618 281.177918 
L 138.699618 279.287729 
L 139.787453 279.287729 
L 139.787453 277.397539 
L 140.512677 277.397539 
L 140.512677 276.452444 
L 142.325735 276.452444 
L 142.325735 273.61716 
L 142.688347 273.61716 
L 142.688347 272.672065 
L 143.050959 272.672065 
L 143.050959 269.83678 
L 145.226629 269.83678 
L 145.226629 267.001496 
L 145.589241 267.001496 
L 145.589241 266.056401 
L 146.677076 266.056401 
L 146.677076 265.111306 
L 147.764911 265.111306 
L 147.764911 264.166211 
L 148.490134 264.166211 
L 148.490134 262.276021 
L 148.852746 262.276021 
L 148.852746 260.385832 
L 150.665805 260.385832 
L 150.665805 259.440737 
L 151.028416 259.440737 
L 151.028416 257.550547 
L 151.391028 257.550547 
L 151.391028 255.660357 
L 152.478863 255.660357 
L 152.478863 254.715263 
L 152.841475 254.715263 
L 152.841475 253.770168 
L 153.566698 253.770168 
L 153.566698 252.825073 
L 154.654534 252.825073 
L 154.654534 250.934883 
L 155.017145 250.934883 
L 155.017145 249.044693 
L 156.830204 249.044693 
L 156.830204 248.099599 
L 157.555427 248.099599 
L 157.555427 246.209409 
L 158.280651 246.209409 
L 158.280651 245.264314 
L 158.643262 245.264314 
L 158.643262 244.319219 
L 160.093709 244.319219 
L 160.093709 242.42903 
L 160.818933 242.42903 
L 160.818933 241.483935 
L 161.181545 241.483935 
L 161.181545 240.53884 
L 161.544156 240.53884 
L 161.544156 238.64865 
L 162.994603 238.64865 
L 162.994603 237.703555 
L 163.719827 237.703555 
L 163.719827 236.75846 
L 164.807662 236.75846 
L 164.807662 235.813366 
L 166.62072 235.813366 
L 166.62072 232.032986 
L 167.345944 232.032986 
L 167.345944 230.142796 
L 168.071167 230.142796 
L 168.071167 228.252607 
L 168.796391 228.252607 
L 168.796391 227.307512 
L 170.246837 227.307512 
L 170.246837 226.362417 
L 170.609449 226.362417 
L 170.609449 224.472227 
L 170.972061 224.472227 
L 170.972061 221.636943 
L 173.147731 221.636943 
L 173.147731 220.691848 
L 173.510343 220.691848 
L 173.510343 219.746753 
L 173.872955 219.746753 
L 173.872955 215.966374 
L 174.235566 215.966374 
L 174.235566 215.021279 
L 176.411237 215.021279 
L 176.411237 213.131089 
L 179.31213 213.131089 
L 179.31213 212.185994 
L 180.037354 212.185994 
L 180.037354 209.35071 
L 180.762577 209.35071 
L 180.762577 207.46052 
L 182.938247 207.46052 
L 182.938247 203.680141 
L 183.300859 203.680141 
L 183.300859 202.735046 
L 184.751306 202.735046 
L 184.751306 201.789951 
L 186.564365 201.789951 
L 186.564365 200.844856 
L 186.926976 200.844856 
L 186.926976 199.899761 
L 189.102647 199.899761 
L 189.102647 198.009572 
L 189.465258 198.009572 
L 189.465258 197.064477 
L 191.278317 197.064477 
L 191.278317 196.119382 
L 191.640929 196.119382 
L 191.640929 195.174287 
L 192.00354 195.174287 
L 192.00354 194.229192 
L 192.366152 194.229192 
L 192.366152 193.284097 
L 197.080104 193.284097 
L 197.080104 190.448813 
L 198.167939 190.448813 
L 198.167939 189.503718 
L 199.255775 189.503718 
L 199.255775 187.613528 
L 200.706221 187.613528 
L 200.706221 185.723339 
L 202.881892 185.723339 
L 202.881892 184.778244 
L 204.69495 184.778244 
L 204.69495 182.888054 
L 207.958456 182.888054 
L 207.958456 181.942959 
L 210.859349 181.942959 
L 210.859349 180.997864 
L 211.584573 180.997864 
L 211.584573 180.052769 
L 213.03502 180.052769 
L 213.03502 179.107675 
L 213.397631 179.107675 
L 213.397631 178.16258 
L 215.21069 178.16258 
L 215.21069 177.217485 
L 222.462924 177.217485 
L 222.462924 176.27239 
L 223.550759 176.27239 
L 223.550759 175.327295 
L 226.451653 175.327295 
L 226.451653 174.3822 
L 227.9021 174.3822 
L 227.9021 173.437105 
L 231.165605 173.437105 
L 231.165605 172.492011 
L 232.978664 172.492011 
L 232.978664 171.546916 
L 233.341276 171.546916 
L 233.341276 169.656726 
L 235.154334 169.656726 
L 235.154334 168.711631 
L 235.516946 168.711631 
L 235.516946 167.766536 
L 235.879558 167.766536 
L 235.879558 166.821442 
L 236.967393 166.821442 
L 236.967393 165.876347 
L 238.055228 165.876347 
L 238.055228 164.931252 
L 244.944851 164.931252 
L 244.944851 163.041062 
L 245.307462 163.041062 
L 245.307462 162.095967 
L 245.670074 162.095967 
L 245.670074 161.150872 
L 246.757909 161.150872 
L 246.757909 160.205778 
L 247.120521 160.205778 
L 247.120521 159.260683 
L 250.021415 159.260683 
L 250.021415 158.315588 
L 250.384026 158.315588 
L 250.384026 157.370493 
L 252.922308 157.370493 
L 252.922308 156.425398 
L 256.548426 156.425398 
L 256.548426 153.590114 
L 263.438048 153.590114 
L 263.438048 149.809734 
L 264.163272 149.809734 
L 264.163272 148.864639 
L 275.041623 148.864639 
L 275.041623 147.919545 
L 276.854682 147.919545 
L 276.854682 146.97445 
L 280.84341 146.97445 
L 280.84341 145.08426 
L 282.656469 145.08426 
L 282.656469 142.248975 
L 284.832139 142.248975 
L 284.832139 141.303881 
L 285.194751 141.303881 
L 285.194751 140.358786 
L 287.00781 140.358786 
L 287.00781 139.413691 
L 287.370421 139.413691 
L 287.370421 138.468596 
L 290.271315 138.468596 
L 290.271315 137.523501 
L 293.53482 137.523501 
L 293.53482 136.578406 
L 297.523549 136.578406 
L 297.523549 135.633311 
L 299.69922 135.633311 
L 299.69922 134.688217 
L 304.775784 134.688217 
L 304.775784 132.798027 
L 305.501007 132.798027 
L 305.501007 131.852932 
L 307.676677 131.852932 
L 307.676677 130.907837 
L 310.577571 130.907837 
L 310.577571 129.962742 
L 311.302794 129.962742 
L 311.302794 129.017648 
L 311.665406 129.017648 
L 311.665406 128.072553 
L 312.028018 128.072553 
L 312.028018 127.127458 
L 313.841076 127.127458 
L 313.841076 126.182363 
L 314.203688 126.182363 
L 314.203688 124.292173 
L 317.467194 124.292173 
L 317.467194 123.347078 
L 320.005476 123.347078 
L 320.005476 121.456889 
L 321.093311 121.456889 
L 321.093311 120.511794 
L 323.631593 120.511794 
L 323.631593 119.566699 
L 328.345545 119.566699 
L 328.345545 118.621604 
L 332.334274 118.621604 
L 332.334274 116.731414 
L 332.696886 116.731414 
L 332.696886 115.78632 
L 340.674343 115.78632 
L 340.674343 114.841225 
L 342.12479 114.841225 
L 342.12479 112.951035 
L 344.663072 112.951035 
L 344.663072 112.00594 
L 350.46486 112.00594 
L 350.46486 111.060845 
L 352.277918 111.060845 
L 352.277918 110.115751 
L 356.991871 110.115751 
L 356.991871 109.170656 
L 360.255376 109.170656 
L 360.255376 108.225561 
L 361.343211 108.225561 
L 361.343211 107.280466 
L 363.881493 107.280466 
L 363.881493 106.335371 
L 364.244105 106.335371 
L 364.244105 105.390276 
L 370.408504 105.390276 
L 370.408504 103.500087 
L 372.221563 103.500087 
L 372.221563 102.554992 
L 377.298127 102.554992 
L 377.298127 101.609897 
L 380.924244 101.609897 
L 380.924244 100.664802 
L 387.451255 100.664802 
L 387.451255 99.719707 
L 401.2305 99.719707 
L 401.2305 98.774612 
L 406.307064 98.774612 
L 406.307064 97.829518 
L 407.032287 97.829518 
L 407.032287 96.884423 
L 410.658404 96.884423 
L 410.658404 95.939328 
L 414.284521 95.939328 
L 414.284521 94.049138 
L 428.426378 94.049138 
L 428.426378 93.104043 
L 430.239437 93.104043 
L 430.239437 92.158948 
L 433.140331 92.158948 
L 433.140331 91.213854 
L 436.403836 91.213854 
L 436.403836 90.268759 
L 438.942118 90.268759 
L 438.942118 89.323664 
L 442.205624 89.323664 
L 442.205624 88.378569 
L 442.568235 88.378569 
L 442.568235 87.433474 
L 444.381294 87.433474 
L 444.381294 86.488379 
L 445.106517 86.488379 
L 445.106517 85.543284 
L 447.282188 85.543284 
L 447.282188 84.59819 
L 457.072704 84.59819 
L 457.072704 83.653095 
L 459.610986 83.653095 
L 459.610986 82.708 
L 461.424044 82.708 
L 461.424044 80.81781 
L 477.741572 80.81781 
L 477.741572 79.872715 
L 486.081641 79.872715 
L 486.081641 78.927621 
L 487.169476 78.927621 
L 487.169476 77.982526 
L 490.07037 77.982526 
L 490.07037 77.037431 
L 496.234769 77.037431 
L 496.234769 76.092336 
L 501.673945 76.092336 
L 501.673945 75.147241 
L 509.288791 75.147241 
L 509.288791 74.202146 
L 527.781988 74.202146 
L 527.781988 73.257051 
L 529.232435 73.257051 
L 529.232435 72.311957 
L 531.770717 72.311957 
L 531.770717 71.366862 
L 539.748175 71.366862 
L 539.748175 70.421767 
L 543.01168 70.421767 
L 543.01168 69.476672 
L 551.35175 69.476672 
L 551.35175 68.531577 
L 554.252643 68.531577 
L 554.252643 67.586482 
L 564.768383 67.586482 
L 564.768383 66.641387 
L 565.856218 66.641387 
L 565.856218 65.696293 
L 577.097181 65.696293 
L 577.097181 64.751198 
L 578.185017 64.751198 
L 578.185017 63.806103 
L 583.261581 63.806103 
L 583.261581 62.861008 
L 591.239038 62.861008 
L 591.239038 61.915913 
L 602.11739 61.915913 
L 602.11739 60.970818 
L 610.094848 60.970818 
L 610.094848 60.025724 
L 624.961928 60.025724 
L 624.961928 59.080629 
L 628.950657 59.080629 
L 628.950657 58.135534 
L 648.894301 58.135534 
L 648.894301 57.190439 
L 659.047429 57.190439 
L 659.047429 56.245344 
L 663.036158 56.245344 
L 663.036158 55.300249 
L 671.738839 55.300249 
L 671.738839 54.355154 
L 673.914509 54.355154 
L 673.914509 53.41006 
L 688.056366 53.41006 
L 688.056366 52.464965 
L 690.594648 52.464965 
L 690.594648 51.51987 
L 699.297329 51.51987 
L 699.297329 50.574775 
L 715.252245 50.574775 
L 715.252245 49.62968 
L 734.470666 49.62968 
L 734.470666 48.684585 
L 764.567438 48.684585 
L 764.567438 47.73949 
L 764.93005 47.73949 
L 764.93005 46.794396 
L 771.819672 46.794396 
L 771.819672 45.849301 
L 774.720566 45.849301 
L 774.720566 44.904206 
L 784.873694 44.904206 
L 784.873694 43.959111 
L 788.1372 43.959111 
L 788.1372 43.014016 
L 867.186553 43.014016 
L 867.186553 42.068921 
L 891.118927 42.068921 
L 891.118927 40.178732 
L 904.172948 40.178732 
L 904.172948 39.233637 
L 926.292263 39.233637 
L 926.292263 38.288542 
L 945.510684 38.288542 
L 945.510684 37.343447 
L 973.794398 37.343447 
L 973.794398 36.398352 
L 1020.93392 36.398352 
L 1020.93392 36.398352 
" style="fill:none;stroke:#dd8452;stroke-linecap:round;stroke-opacity:0.8;stroke-width:1.5;"/>
   </g>
   <g id="patch_3">
    <path d="M 52.70625 528.60375 
L 52.70625 12.96 
" style="fill:none;stroke:#ffffff;stroke-linecap:square;stroke-linejoin:miter;stroke-width:1.25;"/>
   </g>
   <g id="patch_4">
    <path d="M 1067.04 528.60375 
L 1067.04 12.96 
" style="fill:none;stroke:#ffffff;stroke-linecap:square;stroke-linejoin:miter;stroke-width:1.25;"/>
   </g>
   <g id="patch_5">
    <path d="M 52.70625 528.60375 
L 1067.04 528.60375 
" style="fill:none;stroke:#ffffff;stroke-linecap:square;stroke-linejoin:miter;stroke-width:1.25;"/>
   </g>
   <g id="patch_6">
    <path d="M 52.70625 12.96 
L 1067.04 12.96 
" style="fill:none;stroke:#ffffff;stroke-linecap:square;stroke-linejoin:miter;stroke-width:1.25;"/>
   </g>
   <g id="legend_1">
    <g id="patch_7">
     <path d="M 838.614687 523.10375 
L 1059.34 523.10375 
Q 1061.54 523.10375 1061.54 520.90375 
L 1061.54 490.358125 
Q 1061.54 488.158125 1059.34 488.158125 
L 838.614687 488.158125 
Q 836.414687 488.158125 836.414687 490.358125 
L 836.414687 520.90375 
Q 836.414687 523.10375 838.614687 523.10375 
z
" style="fill:#eaeaf2;opacity:0.8;stroke:#cccccc;stroke-linejoin:miter;"/>
    </g>
    <g id="line2d_15">
     <path d="M 840.814687 496.715781 
L 862.814687 496.715781 
" style="fill:none;stroke:#4c72b0;stroke-linecap:round;stroke-opacity:0.8;stroke-width:1.5;"/>
    </g>
    <g id="line2d_16"/>
    <g id="text_15">
     <!-- RandomForestClassifier (AUC = 0.99) -->
     <g style="fill:#262626;" transform="translate(871.614687 500.565781)scale(0.11 -0.11)">
      <defs>
       <path d="M 6.59375 0 
L 6.59375 51.859375 
L 14.5 51.859375 
L 14.5 44.484375 
Q 20.21875 53.03125 31 53.03125 
Q 35.6875 53.03125 39.625 51.34375 
Q 43.5625 49.65625 45.515625 46.921875 
Q 47.46875 44.1875 48.25 40.4375 
Q 48.734375 37.984375 48.734375 31.890625 
L 48.734375 0 
L 39.9375 0 
L 39.9375 31.546875 
Q 39.9375 36.921875 38.90625 39.578125 
Q 37.890625 42.234375 35.28125 43.8125 
Q 32.671875 45.40625 29.15625 45.40625 
Q 23.53125 45.40625 19.453125 41.84375 
Q 15.375 38.28125 15.375 28.328125 
L 15.375 0 
z
" id="ArialMT-110"/>
       <path d="M 40.234375 0 
L 40.234375 6.546875 
Q 35.296875 -1.171875 25.734375 -1.171875 
Q 19.53125 -1.171875 14.328125 2.25 
Q 9.125 5.671875 6.265625 11.796875 
Q 3.421875 17.921875 3.421875 25.875 
Q 3.421875 33.640625 6 39.96875 
Q 8.59375 46.296875 13.765625 49.65625 
Q 18.953125 53.03125 25.34375 53.03125 
Q 30.03125 53.03125 33.6875 51.046875 
Q 37.359375 49.078125 39.65625 45.90625 
L 39.65625 71.578125 
L 48.390625 71.578125 
L 48.390625 0 
z
M 12.453125 25.875 
Q 12.453125 15.921875 16.640625 10.984375 
Q 20.84375 6.0625 26.5625 6.0625 
Q 32.328125 6.0625 36.34375 10.765625 
Q 40.375 15.484375 40.375 25.140625 
Q 40.375 35.796875 36.265625 40.765625 
Q 32.171875 45.75 26.171875 45.75 
Q 20.3125 45.75 16.375 40.96875 
Q 12.453125 36.1875 12.453125 25.875 
z
" id="ArialMT-100"/>
       <path d="M 6.59375 0 
L 6.59375 51.859375 
L 14.453125 51.859375 
L 14.453125 44.578125 
Q 16.890625 48.390625 20.9375 50.703125 
Q 25 53.03125 30.171875 53.03125 
Q 35.9375 53.03125 39.625 50.640625 
Q 43.3125 48.25 44.828125 43.953125 
Q 50.984375 53.03125 60.84375 53.03125 
Q 68.5625 53.03125 72.703125 48.75 
Q 76.859375 44.484375 76.859375 35.59375 
L 76.859375 0 
L 68.109375 0 
L 68.109375 32.671875 
Q 68.109375 37.9375 67.25 40.25 
Q 66.40625 42.578125 64.15625 43.984375 
Q 61.921875 45.40625 58.890625 45.40625 
Q 53.421875 45.40625 49.796875 41.765625 
Q 46.1875 38.140625 46.1875 30.125 
L 46.1875 0 
L 37.40625 0 
L 37.40625 33.6875 
Q 37.40625 39.546875 35.25 42.46875 
Q 33.109375 45.40625 28.21875 45.40625 
Q 24.515625 45.40625 21.359375 43.453125 
Q 18.21875 41.5 16.796875 37.734375 
Q 15.375 33.984375 15.375 26.90625 
L 15.375 0 
z
" id="ArialMT-109"/>
       <path d="M 58.796875 25.09375 
L 68.265625 22.703125 
Q 65.28125 11.03125 57.546875 4.90625 
Q 49.8125 -1.21875 38.625 -1.21875 
Q 27.046875 -1.21875 19.796875 3.484375 
Q 12.546875 8.203125 8.765625 17.140625 
Q 4.984375 26.078125 4.984375 36.328125 
Q 4.984375 47.515625 9.25 55.828125 
Q 13.53125 64.15625 21.40625 68.46875 
Q 29.296875 72.796875 38.765625 72.796875 
Q 49.515625 72.796875 56.828125 67.328125 
Q 64.15625 61.859375 67.046875 51.953125 
L 57.71875 49.75 
Q 55.21875 57.5625 50.484375 61.125 
Q 45.75 64.703125 38.578125 64.703125 
Q 30.328125 64.703125 24.78125 60.734375 
Q 19.234375 56.78125 16.984375 50.109375 
Q 14.75 43.453125 14.75 36.375 
Q 14.75 27.25 17.40625 20.4375 
Q 20.0625 13.625 25.671875 10.25 
Q 31.296875 6.890625 37.84375 6.890625 
Q 45.796875 6.890625 51.3125 11.46875 
Q 56.84375 16.0625 58.796875 25.09375 
z
" id="ArialMT-67"/>
       <path d="M 8.6875 0 
L 8.6875 45.015625 
L 0.921875 45.015625 
L 0.921875 51.859375 
L 8.6875 51.859375 
L 8.6875 57.375 
Q 8.6875 62.59375 9.625 65.140625 
Q 10.890625 68.5625 14.078125 70.671875 
Q 17.28125 72.796875 23.046875 72.796875 
Q 26.765625 72.796875 31.25 71.921875 
L 29.9375 64.265625 
Q 27.203125 64.75 24.75 64.75 
Q 20.75 64.75 19.09375 63.03125 
Q 17.4375 61.328125 17.4375 56.640625 
L 17.4375 51.859375 
L 27.546875 51.859375 
L 27.546875 45.015625 
L 17.4375 45.015625 
L 17.4375 0 
z
" id="ArialMT-102"/>
       <path d="M -0.140625 0 
L 27.34375 71.578125 
L 37.546875 71.578125 
L 66.84375 0 
L 56.0625 0 
L 47.703125 21.6875 
L 17.78125 21.6875 
L 9.90625 0 
z
M 20.515625 29.390625 
L 44.78125 29.390625 
L 37.3125 49.21875 
Q 33.890625 58.25 32.234375 64.0625 
Q 30.859375 57.171875 28.375 50.390625 
z
" id="ArialMT-65"/>
       <path d="M 54.6875 71.578125 
L 64.15625 71.578125 
L 64.15625 30.21875 
Q 64.15625 19.4375 61.71875 13.078125 
Q 59.28125 6.734375 52.90625 2.75 
Q 46.53125 -1.21875 36.1875 -1.21875 
Q 26.125 -1.21875 19.71875 2.25 
Q 13.328125 5.71875 10.59375 12.28125 
Q 7.859375 18.84375 7.859375 30.21875 
L 7.859375 71.578125 
L 17.328125 71.578125 
L 17.328125 30.28125 
Q 17.328125 20.953125 19.0625 16.53125 
Q 20.796875 12.109375 25.015625 9.71875 
Q 29.25 7.328125 35.359375 7.328125 
Q 45.796875 7.328125 50.234375 12.0625 
Q 54.6875 16.796875 54.6875 30.28125 
z
" id="ArialMT-85"/>
       <path d="M 52.828125 42.09375 
L 5.5625 42.09375 
L 5.5625 50.296875 
L 52.828125 50.296875 
z
M 52.828125 20.359375 
L 5.5625 20.359375 
L 5.5625 28.5625 
L 52.828125 28.5625 
z
" id="ArialMT-61"/>
       <path d="M 5.46875 16.546875 
L 13.921875 17.328125 
Q 14.984375 11.375 18.015625 8.6875 
Q 21.046875 6 25.78125 6 
Q 29.828125 6 32.875 7.859375 
Q 35.9375 9.71875 37.890625 12.8125 
Q 39.84375 15.921875 41.15625 21.1875 
Q 42.484375 26.46875 42.484375 31.9375 
Q 42.484375 32.515625 42.4375 33.6875 
Q 39.796875 29.5 35.234375 26.875 
Q 30.671875 24.265625 25.34375 24.265625 
Q 16.453125 24.265625 10.296875 30.703125 
Q 4.15625 37.15625 4.15625 47.703125 
Q 4.15625 58.59375 10.578125 65.234375 
Q 17 71.875 26.65625 71.875 
Q 33.640625 71.875 39.421875 68.109375 
Q 45.21875 64.359375 48.21875 57.390625 
Q 51.21875 50.4375 51.21875 37.25 
Q 51.21875 23.53125 48.234375 15.40625 
Q 45.265625 7.28125 39.375 3.03125 
Q 33.5 -1.21875 25.59375 -1.21875 
Q 17.1875 -1.21875 11.859375 3.4375 
Q 6.546875 8.109375 5.46875 16.546875 
z
M 41.453125 48.140625 
Q 41.453125 55.71875 37.421875 60.15625 
Q 33.40625 64.59375 27.734375 64.59375 
Q 21.875 64.59375 17.53125 59.8125 
Q 13.1875 55.03125 13.1875 47.40625 
Q 13.1875 40.578125 17.3125 36.296875 
Q 21.4375 32.03125 27.484375 32.03125 
Q 33.59375 32.03125 37.515625 36.296875 
Q 41.453125 40.578125 41.453125 48.140625 
z
" id="ArialMT-57"/>
      </defs>
      <use xlink:href="#ArialMT-82"/>
      <use x="72.216797" xlink:href="#ArialMT-97"/>
      <use x="127.832031" xlink:href="#ArialMT-110"/>
      <use x="183.447266" xlink:href="#ArialMT-100"/>
      <use x="239.0625" xlink:href="#ArialMT-111"/>
      <use x="294.677734" xlink:href="#ArialMT-109"/>
      <use x="377.978516" xlink:href="#ArialMT-70"/>
      <use x="439.0625" xlink:href="#ArialMT-111"/>
      <use x="494.677734" xlink:href="#ArialMT-114"/>
      <use x="527.978516" xlink:href="#ArialMT-101"/>
      <use x="583.59375" xlink:href="#ArialMT-115"/>
      <use x="633.59375" xlink:href="#ArialMT-116"/>
      <use x="661.376953" xlink:href="#ArialMT-67"/>
      <use x="733.59375" xlink:href="#ArialMT-108"/>
      <use x="755.810547" xlink:href="#ArialMT-97"/>
      <use x="811.425781" xlink:href="#ArialMT-115"/>
      <use x="861.425781" xlink:href="#ArialMT-115"/>
      <use x="911.425781" xlink:href="#ArialMT-105"/>
      <use x="933.642578" xlink:href="#ArialMT-102"/>
      <use x="961.425781" xlink:href="#ArialMT-105"/>
      <use x="983.642578" xlink:href="#ArialMT-101"/>
      <use x="1039.257812" xlink:href="#ArialMT-114"/>
      <use x="1072.558594" xlink:href="#ArialMT-32"/>
      <use x="1100.341797" xlink:href="#ArialMT-40"/>
      <use x="1133.642578" xlink:href="#ArialMT-65"/>
      <use x="1200.341797" xlink:href="#ArialMT-85"/>
      <use x="1272.558594" xlink:href="#ArialMT-67"/>
      <use x="1344.775391" xlink:href="#ArialMT-32"/>
      <use x="1372.558594" xlink:href="#ArialMT-61"/>
      <use x="1430.957031" xlink:href="#ArialMT-32"/>
      <use x="1458.740234" xlink:href="#ArialMT-48"/>
      <use x="1514.355469" xlink:href="#ArialMT-46"/>
      <use x="1542.138672" xlink:href="#ArialMT-57"/>
      <use x="1597.753906" xlink:href="#ArialMT-57"/>
      <use x="1653.369141" xlink:href="#ArialMT-41"/>
     </g>
    </g>
    <g id="line2d_17">
     <path d="M 840.814687 512.538594 
L 862.814687 512.538594 
" style="fill:none;stroke:#dd8452;stroke-linecap:round;stroke-opacity:0.8;stroke-width:1.5;"/>
    </g>
    <g id="line2d_18"/>
    <g id="text_16">
     <!-- LogisticRegression (AUC = 0.87) -->
     <g style="fill:#262626;" transform="translate(871.614687 516.388594)scale(0.11 -0.11)">
      <defs>
       <path d="M 7.328125 0 
L 7.328125 71.578125 
L 16.796875 71.578125 
L 16.796875 8.453125 
L 52.046875 8.453125 
L 52.046875 0 
z
" id="ArialMT-76"/>
       <path d="M 4.984375 -4.296875 
L 13.53125 -5.5625 
Q 14.0625 -9.515625 16.5 -11.328125 
Q 19.78125 -13.765625 25.4375 -13.765625 
Q 31.546875 -13.765625 34.859375 -11.328125 
Q 38.1875 -8.890625 39.359375 -4.5 
Q 40.046875 -1.8125 39.984375 6.78125 
Q 34.234375 0 25.640625 0 
Q 14.9375 0 9.078125 7.71875 
Q 3.21875 15.4375 3.21875 26.21875 
Q 3.21875 33.640625 5.90625 39.90625 
Q 8.59375 46.1875 13.6875 49.609375 
Q 18.796875 53.03125 25.6875 53.03125 
Q 34.859375 53.03125 40.828125 45.609375 
L 40.828125 51.859375 
L 48.921875 51.859375 
L 48.921875 7.03125 
Q 48.921875 -5.078125 46.453125 -10.125 
Q 44 -15.1875 38.640625 -18.109375 
Q 33.296875 -21.046875 25.484375 -21.046875 
Q 16.21875 -21.046875 10.5 -16.875 
Q 4.78125 -12.703125 4.984375 -4.296875 
z
M 12.25 26.859375 
Q 12.25 16.65625 16.296875 11.96875 
Q 20.359375 7.28125 26.46875 7.28125 
Q 32.515625 7.28125 36.609375 11.9375 
Q 40.71875 16.609375 40.71875 26.5625 
Q 40.71875 36.078125 36.5 40.90625 
Q 32.28125 45.75 26.3125 45.75 
Q 20.453125 45.75 16.34375 40.984375 
Q 12.25 36.234375 12.25 26.859375 
z
" id="ArialMT-103"/>
       <path d="M 40.4375 19 
L 49.078125 17.875 
Q 47.65625 8.9375 41.8125 3.875 
Q 35.984375 -1.171875 27.484375 -1.171875 
Q 16.84375 -1.171875 10.375 5.78125 
Q 3.90625 12.75 3.90625 25.734375 
Q 3.90625 34.125 6.6875 40.421875 
Q 9.46875 46.734375 15.15625 49.875 
Q 20.84375 53.03125 27.546875 53.03125 
Q 35.984375 53.03125 41.359375 48.75 
Q 46.734375 44.484375 48.25 36.625 
L 39.703125 35.296875 
Q 38.484375 40.53125 35.375 43.15625 
Q 32.28125 45.796875 27.875 45.796875 
Q 21.234375 45.796875 17.078125 41.03125 
Q 12.9375 36.28125 12.9375 25.984375 
Q 12.9375 15.53125 16.9375 10.796875 
Q 20.953125 6.0625 27.390625 6.0625 
Q 32.5625 6.0625 36.03125 9.234375 
Q 39.5 12.40625 40.4375 19 
z
" id="ArialMT-99"/>
       <path d="M 4.734375 62.203125 
L 4.734375 70.65625 
L 51.078125 70.65625 
L 51.078125 63.8125 
Q 44.234375 56.546875 37.515625 44.484375 
Q 30.8125 32.421875 27.15625 19.671875 
Q 24.515625 10.6875 23.78125 0 
L 14.75 0 
Q 14.890625 8.453125 18.0625 20.40625 
Q 21.234375 32.375 27.171875 43.484375 
Q 33.109375 54.59375 39.796875 62.203125 
z
" id="ArialMT-55"/>
      </defs>
      <use xlink:href="#ArialMT-76"/>
      <use x="55.615234" xlink:href="#ArialMT-111"/>
      <use x="111.230469" xlink:href="#ArialMT-103"/>
      <use x="166.845703" xlink:href="#ArialMT-105"/>
      <use x="189.0625" xlink:href="#ArialMT-115"/>
      <use x="239.0625" xlink:href="#ArialMT-116"/>
      <use x="266.845703" xlink:href="#ArialMT-105"/>
      <use x="289.0625" xlink:href="#ArialMT-99"/>
      <use x="339.0625" xlink:href="#ArialMT-82"/>
      <use x="411.279297" xlink:href="#ArialMT-101"/>
      <use x="466.894531" xlink:href="#ArialMT-103"/>
      <use x="522.509766" xlink:href="#ArialMT-114"/>
      <use x="555.810547" xlink:href="#ArialMT-101"/>
      <use x="611.425781" xlink:href="#ArialMT-115"/>
      <use x="661.425781" xlink:href="#ArialMT-115"/>
      <use x="711.425781" xlink:href="#ArialMT-105"/>
      <use x="733.642578" xlink:href="#ArialMT-111"/>
      <use x="789.257812" xlink:href="#ArialMT-110"/>
      <use x="844.873047" xlink:href="#ArialMT-32"/>
      <use x="872.65625" xlink:href="#ArialMT-40"/>
      <use x="905.957031" xlink:href="#ArialMT-65"/>
      <use x="972.65625" xlink:href="#ArialMT-85"/>
      <use x="1044.873047" xlink:href="#ArialMT-67"/>
      <use x="1117.089844" xlink:href="#ArialMT-32"/>
      <use x="1144.873047" xlink:href="#ArialMT-61"/>
      <use x="1203.271484" xlink:href="#ArialMT-32"/>
      <use x="1231.054688" xlink:href="#ArialMT-48"/>
      <use x="1286.669922" xlink:href="#ArialMT-46"/>
      <use x="1314.453125" xlink:href="#ArialMT-56"/>
      <use x="1370.068359" xlink:href="#ArialMT-55"/>
      <use x="1425.683594" xlink:href="#ArialMT-41"/>
     </g>
    </g>
   </g>
  </g>
 </g>
 <defs>
  <clipPath id="pcbf341cf4d">
   <rect height="515.64375" width="1014.33375" x="52.70625" y="12.96"/>
  </clipPath>
 </defs>
</svg>
